<svg width="500" height="384" viewBox="0 0 500 384" fill="none" xmlns="http://www.w3.org/2000/svg">
<rect x="7.16563" y="22.4318" width="54.635" height="336.723" fill="#DCE6F7"/>
<path d="M307.658 22.4314L362.293 22.4314L426.489 359.154L369.122 359.154L307.658 22.4314Z" fill="#7EB2DD"/>
<path d="M444.246 22.4314L498.881 22.4314L437.416 359.154L384.147 359.154L444.246 22.4314Z" fill="#DCE6F7"/>
<path d="M224.34 359.154L180.632 281.449H327.59L341.805 359.154H224.34Z" fill="#DCE6F7"/>
<path d="M177.536 229.646L205.217 215.4L167.397 151.94H304.158L318.055 229.646H177.536Z" fill="#DCE6F7"/>
<path d="M136.175 100.137L89.1182 22.4315L280.341 22.4315L294.724 100.137L136.175 100.137Z" fill="#DCE6F7"/>
<path d="M7.16569 22.4314L61.8007 22.4314L178.15 215.17L130.094 240.006L7.16569 22.4314Z" fill="#7EB2DD"/>
<path d="M61.8004 223.17L120.728 223.17L197.022 359.154L138.289 359.155L61.8004 223.17Z" fill="#7EB2DD"/>
<path d="M404.635 245.187L426.489 359.155H384.147L404.635 245.187Z" fill="#445E93"/>
</svg>
