<?xml version="1.0" encoding="UTF-8" standalone="no"?>
<!DOCTYPE svg PUBLIC "-//W3C//DTD SVG 1.1//EN" "http://www.w3.org/Graphics/SVG/1.1/DTD/svg11.dtd">
<svg version="1.1" xmlns="http://www.w3.org/2000/svg" xmlns:xlink="http://www.w3.org/1999/xlink" preserveAspectRatio="xMidYMid meet" viewBox="48 96.41726618705036 386 307.58273381294964" width="380" height="301.58"><defs><path d="" id="b3rETLhvDa"></path><path d="" id="axBjivW9k"></path><path d="M90 100L90 400L50 400L50 100L90 100Z" id="brMiWc9l"></path><path d="M140 100L180 200L140 270L190 400L150 400L100 270L140 200L100 100L140 100Z" id="a2Uet2lI7x"></path><path d="M150 100L290 100L294.5 170L177.5 170L150 100Z" id="exQiKyPYV"></path><path d="M150 270L184.57 210L297.79 210L302.79 290L157.79 290L150 270Z" id="b1eJYsMXA2"></path><path d="M173 330L305 330L310 400L200 400L173 330Z" id="h2P7oz3uo9"></path><path d="M340 100L365 350L390 100L430 100L410 400L320 400L300 100L340 100Z" id="jxMe7JKHi"></path><path d="" id="cj2B4nBH3"></path><path d="" id="a63pLsvdr"></path><path d="M80 110L80 390L60 390L60 110L80 110Z" id="c1zXODmZVM"></path><path d="M165 110L278.03 110L281.67 160L185 160L165 110Z" id="a1yjChZ1dq"></path><path d="M161.33 270L190 220L287.04 220L291 280L165 280L161.33 270Z" id="b1MZwpkYdh"></path><path d="M187.33 340L295.99 340L300 390L207 390L187.33 340Z" id="agcbyBcCM"></path><path d="M330 110L360 359L365.52 376.12L370 360L400 110L420 110L401.5 390L330 390L310 110L330 110Z" id="g16ehM0mCH"></path><path d="M133.1 110L169.05 200L130 270L176.75 390L155.75 390L110 270L150.6 200L113.5 110L133.1 110Z" id="aosJiaDwm"></path></defs><g><g><g><filter id="shadow11240235" x="74.75" y="118.63" width="21" height="21" filterUnits="userSpaceOnUse" primitiveUnits="userSpaceOnUse"><feFlood></feFlood><feComposite in2="SourceAlpha" operator="in"></feComposite><feGaussianBlur stdDeviation="1"></feGaussianBlur><feOffset dx="1" dy="1" result="afterOffset"></feOffset><feFlood flood-color="#3a405a" flood-opacity="0.65"></feFlood><feComposite in2="afterOffset" operator="in"></feComposite><feMorphology operator="dilate" radius="2"></feMorphology><feComposite in2="SourceAlpha" operator="out"></feComposite></filter><path d="" id="aKkO5zvu5" fill="none" stroke="white" filter="url(#shadow11240235)"></path></g><use xlink:href="#b3rETLhvDa" opacity="1" fill="#7eb2dd" fill-opacity="1"></use><g><use xlink:href="#b3rETLhvDa" opacity="1" fill-opacity="0" stroke="#000000" stroke-width="1" stroke-opacity="1"></use></g></g><g><g><filter id="shadow7840115" x="40" y="88.42" width="21" height="21" filterUnits="userSpaceOnUse" primitiveUnits="userSpaceOnUse"><feFlood></feFlood><feComposite in2="SourceAlpha" operator="in"></feComposite><feGaussianBlur stdDeviation="1"></feGaussianBlur><feOffset dx="1" dy="1" result="afterOffset"></feOffset><feFlood flood-color="#3a405a" flood-opacity="0.65"></feFlood><feComposite in2="afterOffset" operator="in"></feComposite><feMorphology operator="dilate" radius="2"></feMorphology><feComposite in2="SourceAlpha" operator="out"></feComposite></filter><path d="" id="c2PR3VtNzd" fill="none" stroke="white" filter="url(#shadow7840115)"></path></g><use xlink:href="#axBjivW9k" opacity="1" fill="#7eb2dd" fill-opacity="1"></use><g><use xlink:href="#axBjivW9k" opacity="1" fill-opacity="0" stroke="#000000" stroke-width="1" stroke-opacity="1"></use></g></g><g><g><filter id="shadow8344308" x="40" y="90" width="61" height="321" filterUnits="userSpaceOnUse" primitiveUnits="userSpaceOnUse"><feFlood></feFlood><feComposite in2="SourceAlpha" operator="in"></feComposite><feGaussianBlur stdDeviation="1"></feGaussianBlur><feOffset dx="1" dy="1" result="afterOffset"></feOffset><feFlood flood-color="#3a405a" flood-opacity="0.65"></feFlood><feComposite in2="afterOffset" operator="in"></feComposite><feMorphology operator="dilate" radius="2"></feMorphology><feComposite in2="SourceAlpha" operator="out"></feComposite></filter><path d="M90 100L90 400L50 400L50 100L90 100Z" id="d21qKE1fXP" fill="white" fill-opacity="1" filter="url(#shadow8344308)"></path></g><use xlink:href="#brMiWc9l" opacity="1" fill="#7eb2dd" fill-opacity="1"></use></g><g><g><filter id="shadow3745353" x="90" y="90" width="111" height="321" filterUnits="userSpaceOnUse" primitiveUnits="userSpaceOnUse"><feFlood></feFlood><feComposite in2="SourceAlpha" operator="in"></feComposite><feGaussianBlur stdDeviation="1"></feGaussianBlur><feOffset dx="1" dy="1" result="afterOffset"></feOffset><feFlood flood-color="#3a405a" flood-opacity="0.65"></feFlood><feComposite in2="afterOffset" operator="in"></feComposite><feMorphology operator="dilate" radius="2"></feMorphology><feComposite in2="SourceAlpha" operator="out"></feComposite></filter><path d="M140 100L180 200L140 270L190 400L150 400L100 270L140 200L100 100L140 100Z" id="a3KivJzm8C" fill="white" fill-opacity="1" filter="url(#shadow3745353)"></path></g><use xlink:href="#a2Uet2lI7x" opacity="1" fill="#7eb2dd" fill-opacity="1"></use></g><g><g><filter id="shadow4506247" x="140" y="90" width="165.5" height="91" filterUnits="userSpaceOnUse" primitiveUnits="userSpaceOnUse"><feFlood></feFlood><feComposite in2="SourceAlpha" operator="in"></feComposite><feGaussianBlur stdDeviation="1"></feGaussianBlur><feOffset dx="1" dy="1" result="afterOffset"></feOffset><feFlood flood-color="#3a405a" flood-opacity="0.65"></feFlood><feComposite in2="afterOffset" operator="in"></feComposite><feMorphology operator="dilate" radius="2"></feMorphology><feComposite in2="SourceAlpha" operator="out"></feComposite></filter><path d="M150 100L290 100L294.5 170L177.5 170L150 100Z" id="c2ymfeHy4" fill="white" fill-opacity="1" filter="url(#shadow4506247)"></path></g><use xlink:href="#exQiKyPYV" opacity="1" fill="#7eb2dd" fill-opacity="1"></use></g><g><g><filter id="shadow15927446" x="140" y="200" width="173.79" height="101" filterUnits="userSpaceOnUse" primitiveUnits="userSpaceOnUse"><feFlood></feFlood><feComposite in2="SourceAlpha" operator="in"></feComposite><feGaussianBlur stdDeviation="1"></feGaussianBlur><feOffset dx="1" dy="1" result="afterOffset"></feOffset><feFlood flood-color="#3a405a" flood-opacity="0.65"></feFlood><feComposite in2="afterOffset" operator="in"></feComposite><feMorphology operator="dilate" radius="2"></feMorphology><feComposite in2="SourceAlpha" operator="out"></feComposite></filter><path d="M150 270L184.57 210L297.79 210L302.79 290L157.79 290L150 270Z" id="a2MJc1mG8P" fill="white" fill-opacity="1" filter="url(#shadow15927446)"></path></g><use xlink:href="#b1eJYsMXA2" opacity="1" fill="#7eb2dd" fill-opacity="1"></use></g><g><g><filter id="shadow8037240" x="163" y="320" width="158" height="91" filterUnits="userSpaceOnUse" primitiveUnits="userSpaceOnUse"><feFlood></feFlood><feComposite in2="SourceAlpha" operator="in"></feComposite><feGaussianBlur stdDeviation="1"></feGaussianBlur><feOffset dx="1" dy="1" result="afterOffset"></feOffset><feFlood flood-color="#3a405a" flood-opacity="0.65"></feFlood><feComposite in2="afterOffset" operator="in"></feComposite><feMorphology operator="dilate" radius="2"></feMorphology><feComposite in2="SourceAlpha" operator="out"></feComposite></filter><path d="M173 330L305 330L310 400L200 400L173 330Z" id="b9vSmplqJ" fill="white" fill-opacity="1" filter="url(#shadow8037240)"></path></g><use xlink:href="#h2P7oz3uo9" opacity="1" fill="#7eb2dd" fill-opacity="1"></use></g><g><g><filter id="shadow3083248" x="290" y="90" width="151" height="321" filterUnits="userSpaceOnUse" primitiveUnits="userSpaceOnUse"><feFlood></feFlood><feComposite in2="SourceAlpha" operator="in"></feComposite><feGaussianBlur stdDeviation="1"></feGaussianBlur><feOffset dx="1" dy="1" result="afterOffset"></feOffset><feFlood flood-color="#3a405a" flood-opacity="0.65"></feFlood><feComposite in2="afterOffset" operator="in"></feComposite><feMorphology operator="dilate" radius="2"></feMorphology><feComposite in2="SourceAlpha" operator="out"></feComposite></filter><path d="M340 100L365 350L390 100L430 100L410 400L320 400L300 100L340 100Z" id="av5KQKom1" fill="white" fill-opacity="1" filter="url(#shadow3083248)"></path></g><use xlink:href="#jxMe7JKHi" opacity="1" fill="#7eb2dd" fill-opacity="1"></use></g><g><g><filter id="shadow5195900" x="74.75" y="118.63" width="21" height="21" filterUnits="userSpaceOnUse" primitiveUnits="userSpaceOnUse"><feFlood></feFlood><feComposite in2="SourceAlpha" operator="in"></feComposite><feGaussianBlur stdDeviation="1"></feGaussianBlur><feOffset dx="1" dy="1" result="afterOffset"></feOffset><feFlood flood-color="#3a405a" flood-opacity="0.65"></feFlood><feComposite in2="afterOffset" operator="in"></feComposite><feMorphology operator="dilate" radius="2"></feMorphology><feComposite in2="SourceAlpha" operator="out"></feComposite></filter><path d="" id="cJH0hyQU" fill="none" stroke="white" filter="url(#shadow5195900)"></path></g><use xlink:href="#cj2B4nBH3" opacity="1" fill="#7eb2dd" fill-opacity="1"></use><g><use xlink:href="#cj2B4nBH3" opacity="1" fill-opacity="0" stroke="#000000" stroke-width="1" stroke-opacity="1"></use></g></g><g><g><filter id="shadow16580784" x="40" y="88.42" width="21" height="21" filterUnits="userSpaceOnUse" primitiveUnits="userSpaceOnUse"><feFlood></feFlood><feComposite in2="SourceAlpha" operator="in"></feComposite><feGaussianBlur stdDeviation="1"></feGaussianBlur><feOffset dx="1" dy="1" result="afterOffset"></feOffset><feFlood flood-color="#3a405a" flood-opacity="0.65"></feFlood><feComposite in2="afterOffset" operator="in"></feComposite><feMorphology operator="dilate" radius="2"></feMorphology><feComposite in2="SourceAlpha" operator="out"></feComposite></filter><path d="" id="bslxlbPol" fill="none" stroke="white" filter="url(#shadow16580784)"></path></g><use xlink:href="#a63pLsvdr" opacity="1" fill="#7eb2dd" fill-opacity="1"></use><g><use xlink:href="#a63pLsvdr" opacity="1" fill-opacity="0" stroke="#000000" stroke-width="1" stroke-opacity="1"></use></g></g><g><g><filter id="shadow4311467" x="50" y="100" width="41" height="301" filterUnits="userSpaceOnUse" primitiveUnits="userSpaceOnUse"><feFlood></feFlood><feComposite in2="SourceAlpha" operator="in"></feComposite><feGaussianBlur stdDeviation="1"></feGaussianBlur><feOffset dx="1" dy="1" result="afterOffset"></feOffset><feFlood flood-color="#3a405a" flood-opacity="0.65"></feFlood><feComposite in2="afterOffset" operator="in"></feComposite><feMorphology operator="dilate" radius="2"></feMorphology><feComposite in2="SourceAlpha" operator="out"></feComposite></filter><path d="M80 110L80 390L60 390L60 110L80 110Z" id="emjJMlgwo" fill="white" fill-opacity="1" filter="url(#shadow4311467)"></path></g><use xlink:href="#c1zXODmZVM" opacity="1" fill="#dce6f7" fill-opacity="1"></use></g><g><g><filter id="shadow4154076" x="155" y="100" width="137.67" height="71" filterUnits="userSpaceOnUse" primitiveUnits="userSpaceOnUse"><feFlood></feFlood><feComposite in2="SourceAlpha" operator="in"></feComposite><feGaussianBlur stdDeviation="1"></feGaussianBlur><feOffset dx="1" dy="1" result="afterOffset"></feOffset><feFlood flood-color="#3a405a" flood-opacity="0.65"></feFlood><feComposite in2="afterOffset" operator="in"></feComposite><feMorphology operator="dilate" radius="2"></feMorphology><feComposite in2="SourceAlpha" operator="out"></feComposite></filter><path d="M165 110L278.03 110L281.67 160L185 160L165 110Z" id="c2NIUnO89" fill="white" fill-opacity="1" filter="url(#shadow4154076)"></path></g><use xlink:href="#a1yjChZ1dq" opacity="1" fill="#dce6f7" fill-opacity="1"></use></g><g><g><filter id="shadow87060" x="151.33" y="210" width="150.67" height="81" filterUnits="userSpaceOnUse" primitiveUnits="userSpaceOnUse"><feFlood></feFlood><feComposite in2="SourceAlpha" operator="in"></feComposite><feGaussianBlur stdDeviation="1"></feGaussianBlur><feOffset dx="1" dy="1" result="afterOffset"></feOffset><feFlood flood-color="#3a405a" flood-opacity="0.65"></feFlood><feComposite in2="afterOffset" operator="in"></feComposite><feMorphology operator="dilate" radius="2"></feMorphology><feComposite in2="SourceAlpha" operator="out"></feComposite></filter><path d="M161.33 270L190 220L287.04 220L291 280L165 280L161.33 270Z" id="aQxvNRaCl" fill="white" fill-opacity="1" filter="url(#shadow87060)"></path></g><use xlink:href="#b1MZwpkYdh" opacity="1" fill="#dce6f7" fill-opacity="1"></use></g><g><g><filter id="shadow6539875" x="177.33" y="330" width="133.67" height="71" filterUnits="userSpaceOnUse" primitiveUnits="userSpaceOnUse"><feFlood></feFlood><feComposite in2="SourceAlpha" operator="in"></feComposite><feGaussianBlur stdDeviation="1"></feGaussianBlur><feOffset dx="1" dy="1" result="afterOffset"></feOffset><feFlood flood-color="#3a405a" flood-opacity="0.65"></feFlood><feComposite in2="afterOffset" operator="in"></feComposite><feMorphology operator="dilate" radius="2"></feMorphology><feComposite in2="SourceAlpha" operator="out"></feComposite></filter><path d="M187.33 340L295.99 340L300 390L207 390L187.33 340Z" id="d6dNdo9EH" fill="white" fill-opacity="1" filter="url(#shadow6539875)"></path></g><use xlink:href="#agcbyBcCM" opacity="1" fill="#dce6f7" fill-opacity="1"></use></g><g><g><filter id="shadow832278" x="300" y="100" width="131" height="301" filterUnits="userSpaceOnUse" primitiveUnits="userSpaceOnUse"><feFlood></feFlood><feComposite in2="SourceAlpha" operator="in"></feComposite><feGaussianBlur stdDeviation="1"></feGaussianBlur><feOffset dx="1" dy="1" result="afterOffset"></feOffset><feFlood flood-color="#3a405a" flood-opacity="0.65"></feFlood><feComposite in2="afterOffset" operator="in"></feComposite><feMorphology operator="dilate" radius="2"></feMorphology><feComposite in2="SourceAlpha" operator="out"></feComposite></filter><path d="M330 110L360 359L365.52 376.12L370 360L400 110L420 110L401.5 390L330 390L310 110L330 110Z" id="e14Nu5P0I3" fill="white" fill-opacity="1" filter="url(#shadow832278)"></path></g><use xlink:href="#g16ehM0mCH" opacity="1" fill="#dce6f7" fill-opacity="1"></use></g><g><g><filter id="shadow11229587" x="100" y="100" width="87.75" height="301" filterUnits="userSpaceOnUse" primitiveUnits="userSpaceOnUse"><feFlood></feFlood><feComposite in2="SourceAlpha" operator="in"></feComposite><feGaussianBlur stdDeviation="1"></feGaussianBlur><feOffset dx="1" dy="1" result="afterOffset"></feOffset><feFlood flood-color="#3a405a" flood-opacity="0.65"></feFlood><feComposite in2="afterOffset" operator="in"></feComposite><feMorphology operator="dilate" radius="2"></feMorphology><feComposite in2="SourceAlpha" operator="out"></feComposite></filter><path d="M133.1 110L169.05 200L130 270L176.75 390L155.75 390L110 270L150.6 200L113.5 110L133.1 110Z" id="f459J7JMb" fill="white" fill-opacity="1" filter="url(#shadow11229587)"></path></g><use xlink:href="#aosJiaDwm" opacity="1" fill="#dce6f7" fill-opacity="1"></use></g></g></svg>